<svg xmlns="http://www.w3.org/2000/svg" xmlns:xlink="http://www.w3.org/1999/xlink" width="500" zoomAndPan="magnify" viewBox="0 0 375 374.999991" height="500" preserveAspectRatio="xMidYMid meet" version="1.0"><path fill="#1a1a1a" d="M 337.585938 70.71875 L 194.679688 3.703125 C 189.835938 1.4375 184.246094 1.4375 179.402344 3.703125 L 36.496094 70.71875 C 30.191406 73.675781 26.167969 79.996094 26.167969 86.964844 C 26.167969 93.917969 30.191406 100.25 36.496094 103.207031 L 179.402344 170.234375 C 181.824219 171.367188 184.433594 171.941406 187.042969 171.941406 C 189.648438 171.941406 192.257812 171.367188 194.679688 170.234375 L 337.585938 103.207031 C 343.890625 100.25 347.914062 93.917969 347.914062 86.964844 C 347.914062 79.996094 343.890625 73.675781 337.585938 70.71875 Z M 187.042969 134.15625 L 86.421875 86.964844 L 187.042969 39.78125 L 287.660156 86.964844 Z M 187.042969 134.15625 " fill-opacity="1" fill-rule="nonzero"/><path fill="#1a1a1a" d="M 346.207031 146.359375 C 341.996094 137.382812 331.28125 133.550781 322.308594 137.746094 L 187.042969 201.171875 L 51.773438 137.746094 C 42.789062 133.539062 32.074219 137.371094 27.875 146.359375 C 23.652344 155.332031 27.515625 166.027344 36.496094 170.234375 L 179.402344 237.25 C 181.824219 238.382812 184.433594 238.957031 187.042969 238.957031 C 189.648438 238.957031 192.257812 238.382812 194.679688 237.25 L 337.585938 170.234375 C 346.570312 166.027344 350.429688 155.332031 346.207031 146.359375 Z M 346.207031 146.359375 " fill-opacity="1" fill-rule="nonzero"/><path fill="#1a1a1a" d="M 346.207031 213.371094 C 341.996094 204.398438 331.28125 200.5625 322.308594 204.757812 L 187.042969 268.199219 L 51.773438 204.757812 C 42.789062 200.550781 32.074219 204.386719 27.875 213.371094 C 23.652344 222.347656 27.515625 233.042969 36.496094 237.25 L 179.402344 304.277344 C 181.824219 305.410156 184.433594 305.980469 187.042969 305.980469 C 189.648438 305.980469 192.257812 305.410156 194.679688 304.277344 L 337.585938 237.25 C 346.570312 233.042969 350.429688 222.347656 346.207031 213.371094 Z M 346.207031 213.371094 " fill-opacity="1" fill-rule="nonzero"/><path fill="#1a1a1a" d="M 346.207031 280.398438 C 341.996094 271.421875 331.28125 267.566406 322.308594 271.785156 L 187.042969 335.210938 L 51.773438 271.785156 C 42.789062 267.566406 32.074219 271.421875 27.875 280.398438 C 23.652344 289.375 27.515625 300.070312 36.496094 304.277344 L 179.402344 371.289062 C 181.824219 372.425781 184.433594 372.996094 187.042969 372.996094 C 189.648438 372.996094 192.257812 372.425781 194.679688 371.289062 L 337.585938 304.277344 C 346.570312 300.070312 350.429688 289.375 346.207031 280.398438 Z M 346.207031 280.398438 " fill-opacity="1" fill-rule="nonzero"/></svg>