<svg xmlns="http://www.w3.org/2000/svg" xmlns:xlink="http://www.w3.org/1999/xlink" width="500" zoomAndPan="magnify" viewBox="0 0 375 374.999991" height="500" preserveAspectRatio="xMidYMid meet" version="1.0"><rect x="-37.5" width="450" fill="#ffffff" y="-37.499999" height="449.999989" fill-opacity="1"/><rect x="-37.5" width="450" fill="#ffffff" y="-37.499999" height="449.999989" fill-opacity="1"/><rect x="-37.5" width="450" fill="#4839f4" y="-37.499999" height="449.999989" fill-opacity="1"/><path fill="#ffffff" d="M 298.515625 100.871094 L 192.644531 51.148438 C 189.058594 49.464844 184.914062 49.464844 181.328125 51.148438 L 75.460938 100.871094 C 70.789062 103.066406 67.808594 107.757812 67.808594 112.925781 C 67.808594 118.085938 70.789062 122.785156 75.460938 124.976562 L 181.328125 174.710938 C 183.121094 175.550781 185.054688 175.976562 186.988281 175.976562 C 188.917969 175.976562 190.851562 175.550781 192.644531 174.710938 L 298.515625 124.976562 C 303.183594 122.785156 306.164062 118.085938 306.164062 112.925781 C 306.164062 107.757812 303.183594 103.066406 298.515625 100.871094 Z M 186.988281 147.941406 L 112.445312 112.925781 L 186.988281 77.917969 L 261.527344 112.925781 Z M 186.988281 147.941406 " fill-opacity="1" fill-rule="nonzero"/><path fill="#ffffff" d="M 304.902344 156.996094 C 301.78125 150.335938 293.84375 147.488281 287.195312 150.601562 L 186.988281 197.664062 L 86.777344 150.601562 C 80.121094 147.480469 72.183594 150.324219 69.074219 156.996094 C 65.945312 163.652344 68.804688 171.589844 75.460938 174.710938 L 181.328125 224.433594 C 183.121094 225.277344 185.054688 225.699219 186.988281 225.699219 C 188.917969 225.699219 190.851562 225.277344 192.644531 224.433594 L 298.515625 174.710938 C 305.167969 171.589844 308.027344 163.652344 304.902344 156.996094 Z M 304.902344 156.996094 " fill-opacity="1" fill-rule="nonzero"/><path fill="#ffffff" d="M 304.902344 206.71875 C 301.78125 200.058594 293.84375 197.214844 287.195312 200.328125 L 186.988281 247.398438 L 86.777344 200.328125 C 80.121094 197.207031 72.183594 200.050781 69.074219 206.71875 C 65.945312 213.378906 68.804688 221.3125 75.460938 224.433594 L 181.328125 274.167969 C 183.121094 275.007812 185.054688 275.433594 186.988281 275.433594 C 188.917969 275.433594 190.851562 275.007812 192.644531 274.167969 L 298.515625 224.433594 C 305.167969 221.3125 308.027344 213.378906 304.902344 206.71875 Z M 304.902344 206.71875 " fill-opacity="1" fill-rule="nonzero"/><path fill="#ffffff" d="M 304.902344 256.449219 C 301.78125 249.789062 293.84375 246.929688 287.195312 250.058594 L 186.988281 297.121094 L 86.777344 250.058594 C 80.121094 246.929688 72.183594 249.789062 69.074219 256.449219 C 65.945312 263.109375 68.804688 271.042969 75.460938 274.167969 L 181.328125 323.890625 C 183.121094 324.730469 185.054688 325.15625 186.988281 325.15625 C 188.917969 325.15625 190.851562 324.730469 192.644531 323.890625 L 298.515625 274.167969 C 305.167969 271.042969 308.027344 263.109375 304.902344 256.449219 Z M 304.902344 256.449219 " fill-opacity="1" fill-rule="nonzero"/></svg>