<svg xmlns="http://www.w3.org/2000/svg" xmlns:xlink="http://www.w3.org/1999/xlink" width="500" zoomAndPan="magnify" viewBox="0 0 375 374.999991" height="500" preserveAspectRatio="xMidYMid meet" version="1.0"><path fill="#4839f4" d="M 7.78125 374.222656 C 5.789062 374.222656 3.796875 373.460938 2.273438 371.949219 C -0.761719 368.914062 -0.761719 363.984375 2.273438 360.949219 L 64.511719 298.707031 C 67.546875 295.675781 72.480469 295.675781 75.511719 298.707031 C 78.546875 301.742188 78.546875 306.675781 75.511719 309.710938 L 13.273438 371.949219 C 11.761719 373.460938 9.773438 374.222656 7.78125 374.222656 Z M 7.78125 374.222656 " fill-opacity="1" fill-rule="nonzero"/><path fill="#4839f4" d="M 318.984375 171.941406 C 316.992188 171.941406 315 171.175781 313.476562 169.667969 L 204.554688 60.746094 C 201.519531 57.710938 201.519531 52.78125 204.554688 49.746094 C 207.589844 46.710938 212.519531 46.710938 215.554688 49.746094 L 324.476562 158.667969 C 327.511719 161.703125 327.511719 166.632812 324.476562 169.667969 C 322.964844 171.175781 320.976562 171.941406 318.984375 171.941406 Z M 318.984375 171.941406 " fill-opacity="1" fill-rule="nonzero"/><path fill="#4839f4" d="M 365.664062 94.140625 C 363.671875 94.140625 361.679688 93.375 360.15625 91.867188 L 282.355469 14.066406 C 279.320312 11.03125 279.320312 6.097656 282.355469 3.066406 C 285.390625 0.03125 290.320312 0.03125 293.355469 3.066406 L 371.15625 80.867188 C 374.191406 83.902344 374.191406 88.832031 371.15625 91.867188 C 369.648438 93.375 367.65625 94.140625 365.664062 94.140625 Z M 365.664062 94.140625 " fill-opacity="1" fill-rule="nonzero"/><path fill="#4839f4" d="M 264.523438 70.796875 C 262.53125 70.796875 260.539062 70.035156 259.015625 68.527344 C 255.980469 65.492188 255.980469 60.558594 259.015625 57.527344 L 297.914062 18.625 C 300.949219 15.589844 305.882812 15.589844 308.914062 18.625 C 311.949219 21.660156 311.949219 26.59375 308.914062 29.625 L 270.015625 68.527344 C 268.507812 70.035156 266.515625 70.796875 264.523438 70.796875 Z M 264.523438 70.796875 " fill-opacity="1" fill-rule="nonzero"/><path fill="#4839f4" d="M 311.203125 117.480469 C 309.210938 117.480469 307.21875 116.71875 305.695312 115.207031 C 302.660156 112.171875 302.660156 107.242188 305.695312 104.207031 L 344.59375 65.304688 C 347.628906 62.273438 352.5625 62.273438 355.597656 65.304688 C 358.628906 68.339844 358.628906 73.273438 355.597656 76.308594 L 316.695312 115.207031 C 315.1875 116.71875 313.195312 117.480469 311.203125 117.480469 Z M 311.203125 117.480469 " fill-opacity="1" fill-rule="nonzero"/><path fill="#4839f4" d="M 308.929688 143.089844 C 305.898438 140.058594 300.964844 140.058594 297.929688 143.089844 L 231.128906 76.292969 C 234.164062 73.257812 234.164062 68.324219 231.128906 65.289062 C 228.097656 62.257812 223.164062 62.257812 220.128906 65.289062 L 48.96875 236.453125 C 47.039062 238.382812 46.261719 241.183594 46.929688 243.84375 L 62.488281 306.085938 C 63.175781 308.871094 65.351562 311.046875 68.136719 311.746094 L 130.378906 327.308594 C 131 327.464844 131.625 327.542969 132.261719 327.542969 C 134.300781 327.542969 136.292969 326.730469 137.769531 325.269531 L 308.929688 154.109375 C 311.964844 151.058594 311.964844 146.140625 308.929688 143.089844 Z M 114.429688 247.46875 C 112.90625 248.976562 110.914062 249.742188 108.921875 249.742188 C 106.929688 249.742188 104.9375 248.976562 103.414062 247.46875 L 87.851562 231.910156 C 84.820312 228.875 84.820312 223.941406 87.851562 220.90625 C 90.886719 217.875 95.820312 217.875 98.855469 220.90625 L 114.414062 236.46875 C 117.464844 239.503906 117.464844 244.417969 114.429688 247.46875 Z M 137.769531 216.347656 C 136.246094 217.859375 134.253906 218.621094 132.261719 218.621094 C 130.269531 218.621094 128.277344 217.859375 126.753906 216.347656 L 111.191406 200.789062 C 108.160156 197.753906 108.160156 192.820312 111.191406 189.789062 C 114.226562 186.753906 119.160156 186.753906 122.195312 189.789062 L 137.753906 205.347656 C 140.804688 208.382812 140.804688 213.296875 137.769531 216.347656 Z M 168.890625 193.007812 C 167.363281 194.519531 165.375 195.28125 163.382812 195.28125 C 161.390625 195.28125 159.398438 194.519531 157.875 193.007812 L 142.3125 177.449219 C 139.277344 174.414062 139.277344 169.480469 142.3125 166.445312 C 145.347656 163.414062 150.28125 163.414062 153.3125 166.445312 L 168.875 182.007812 C 171.925781 185.042969 171.925781 189.957031 168.890625 193.007812 Z M 192.230469 161.886719 C 190.707031 163.398438 188.714844 164.160156 186.722656 164.160156 C 184.730469 164.160156 182.738281 163.398438 181.214844 161.886719 L 165.652344 146.328125 C 162.621094 143.292969 162.621094 138.359375 165.652344 135.328125 C 168.6875 132.292969 173.621094 132.292969 176.65625 135.328125 L 192.214844 150.886719 C 195.265625 153.921875 195.265625 158.839844 192.230469 161.886719 Z M 223.460938 138.421875 C 221.933594 139.949219 219.941406 140.695312 217.953125 140.695312 C 215.960938 140.695312 213.96875 139.933594 212.441406 138.421875 L 197.007812 122.988281 C 193.972656 119.953125 193.972656 115.019531 197.007812 111.988281 C 200.042969 108.953125 204.972656 108.953125 208.007812 111.988281 L 223.445312 127.421875 C 226.507812 130.457031 226.507812 135.375 223.460938 138.421875 Z M 223.460938 138.421875 " fill-opacity="1" fill-rule="nonzero"/></svg>